<?xml version="1.0" standalone="no"?>
<!DOCTYPE svg PUBLIC "-//W3C//DTD SVG 20010904//EN"
 "http://www.w3.org/TR/2001/REC-SVG-20010904/DTD/svg10.dtd">
<svg version="1.0" xmlns="http://www.w3.org/2000/svg"
 width="254.000000pt" height="254.000000pt" viewBox="0 0 254.000000 254.000000"
 preserveAspectRatio="xMidYMid meet">
<metadata>
Created by potrace 1.14, written by Peter Selinger 2001-2017
</metadata>
<g transform="translate(0.000000,254.000000) scale(0.100000,-0.100000)"
fill="#000000" stroke="none">
<path d="M1212 1672 c-132 -2 -173 -5 -169 -15 2 -6 15 -13 30 -15 52 -6 52
-7 52 -394 l0 -360 -24 -19 c-13 -10 -32 -19 -42 -19 -10 0 -19 -7 -19 -15 0
-22 393 -21 495 0 243 52 373 242 337 495 -32 223 -165 330 -427 342 -33 2
-138 2 -233 0z m269 -33 c41 -9 62 -21 98 -58 66 -66 83 -122 88 -296 5 -163
-11 -263 -54 -335 -38 -61 -113 -100 -193 -100 -101 0 -95 -26 -95 395 l0 367
24 19 c27 22 58 24 132 8z"/>
<path d="M622 1658 c3 -7 17 -14 31 -16 58 -7 58 -10 55 -469 -3 -409 -3 -419
-25 -463 -23 -47 -65 -80 -102 -80 -13 0 -21 -6 -21 -16 0 -14 10 -16 69 -12
83 6 148 36 201 94 69 75 72 99 78 530 2 210 8 387 12 394 4 6 22 15 40 19 19
3 35 12 38 19 3 9 -41 12 -188 12 -149 0 -191 -3 -188 -12z"/>
<path d="M2350 10 c-11 -7 -7 -10 18 -10 20 0 31 4 27 10 -8 13 -26 13 -45 0z"/>
<path d="M693 3 c9 -2 25 -2 35 0 9 3 1 5 -18 5 -19 0 -27 -2 -17 -5z"/>
<path d="M1278 3 c6 -2 18 -2 25 0 6 3 1 5 -13 5 -14 0 -19 -2 -12 -5z"/>
</g>
</svg>
